<?xml version="1.0" encoding="utf-8"?>
<!-- Generator: Adobe Illustrator 21.1.0, SVG Export Plug-In . SVG Version: 6.00 Build 0)  -->
<svg version="1.1" id="Layer_1" xmlns:svg="http://www.w3.org/2000/svg"
	 xmlns="http://www.w3.org/2000/svg" xmlns:xlink="http://www.w3.org/1999/xlink" x="0px" y="0px" viewBox="0 0 1277 1277"
	 style="enable-background:new 0 0 1277 1277;" xml:space="preserve">
<style type="text/css">
	.st0{fill:#3D5A98;}
	.st1{fill:#FFFFFF;}
</style>
<g>
	<path id="Blue_1_" class="st0" d="M1206.6,1277.1c38.9,0,70.5-31.6,70.5-70.5V70.5c0-38.9-31.6-70.5-70.5-70.5H70.5
		C31.5,0,0,31.6,0,70.5v1136.1c0,38.9,31.5,70.5,70.5,70.5H1206.6z"/>
	<path id="f" class="st1" d="M881.2,1277.1V782.5h166l24.9-192.7H881.2V466.7c0-55.8,15.5-93.8,95.5-93.8l102.1,0V200.5
		c-17.7-2.3-78.2-7.6-148.7-7.6c-147.1,0-247.9,89.8-247.9,254.8v142.1H515.7v192.7h166.4v494.6H881.2z"/>
</g>
</svg>
